<?xml version="1.0" encoding="UTF-8"?>
<!-- Generated by Pixelmator Pro 2.4.1 -->
<svg width="26" height="21" viewBox="0 0 26 21" xmlns="http://www.w3.org/2000/svg" xmlns:xlink="http://www.w3.org/1999/xlink">
    <path id="Path" fill="#995068" stroke="none" d="M 12.9091 21 C 13.6457 21 14.2429 19.314199 14.2429 17.234699 C 14.2429 15.1552 13.6457 13.4695 12.9091 13.4695 C 12.1725 13.4695 11.5753 15.1552 11.5753 17.234699 C 11.5753 19.314199 12.1725 21 12.9091 21 Z"/>
    <path id="path1" fill="#80a6cb" stroke="none" d="M 8.24965 3.448601 C 7.17034 6.52928 5.23986 11.8948 4.96784 11.7579 C 4.60807 11.5611 0.264496 0.770117 0.018799 0.162537 L 8.24965 3.448601 Z"/>
    <path id="path2" fill="#80a6cb" stroke="none" d="M 25.966101 0.137518 C 25.966101 0.137518 21.376801 11.5446 21.008301 11.7414 C 20.639799 11.9468 16.998199 1.34412 16.998199 1.34412 C 16.998199 1.34412 23.526699 -0.427277 25.966101 0.137518 Z"/>
    <path id="path3" fill="#393430" stroke="none" d="M 8.98673 1.343969 C 8.98673 1.343969 8.68838 2.216841 8.24963 3.44911 L 0.018785 0.163046 C 0.01001 0.145931 0.01001 0.137373 0.01001 0.137373 C 2.44943 -0.435976 8.98673 1.343969 8.98673 1.343969 Z"/>
    <path id="path4" fill="#393430" stroke="none" d="M 17.042 1.317749 C 17.042 1.317749 17.3403 2.182051 17.7791 3.42289 L 25.992399 0.136822 C 26.0012 0.119707 26.009899 0.111149 26.009899 0.111149 C 23.570499 -0.453644 17.042 1.317749 17.042 1.317749 Z"/>
    <path id="path5" fill="#393430" stroke="none" d="M 18.0951 6.30673 C 17.9196 6.30673 17.752899 6.31529 17.5774 6.332399 C 17.559799 5.96443 17.4984 5.605021 17.401899 5.26272 C 16.8403 3.260269 14.9713 1.788389 12.7512 1.788389 C 10.7944 1.788389 9.10962 2.935089 8.35498 4.59524 C 8.10929 5.1258 7.96889 5.69915 7.93379 6.30673 C 6.07351 6.31529 4.4677 7.359301 3.66919 8.89108 C 3.73939 9.35318 3.85346 9.8324 4.03774 10.3287 C 4.29221 11.0476 4.66953 11.8006 5.1697 12.5708 C 5.31887 12.7505 5.45927 12.9388 5.62599 13.127 C 5.81904 13.3495 6.02964 13.572 6.26656 13.7688 C 6.52103 13.9828 6.80183 14.1796 7.10895 14.3336 C 7.67932 14.6246 8.01276 15.1808 8.27601 15.8055 C 8.54803 16.464399 8.72353 17.191799 8.98677 17.773701 C 9.88181 20.263901 11.6807 20.186899 12.9443 18.8263 C 12.953 18.817699 12.9881 18.7236 12.9969 18.706499 C 12.9969 18.732201 13.032 18.8263 13.0496 18.8263 C 14.3131 20.186899 16.1208 20.263901 17.007 17.773701 C 17.2703 17.191799 17.445801 16.4559 17.7178 15.7969 C 17.9723 15.1723 18.314501 14.616 18.884899 14.3336 C 19.2885 14.1368 19.630699 13.8715 19.9291 13.5806 C 20.1835 13.341 20.402901 13.0842 20.613501 12.8275 C 20.683701 12.7419 20.7451 12.6564 20.8153 12.5708 C 21.324301 11.8006 21.692801 11.0476 21.9473 10.3287 C 22.131599 9.79817 22.263201 9.28472 22.3246 8.79695 C 21.5173 7.31651 19.9291 6.30673 18.0951 6.30673 Z"/>
    <path id="path6" fill="#bfc0c4" stroke="none" d="M 22.341999 8.8741 C 21.525999 7.39366 19.9377 6.383881 18.1038 6.383881 C 17.928301 6.383881 17.7528 6.39244 17.586 6.40955 C 17.568501 6.04158 17.507099 5.68217 17.4105 5.348431 C 16.849001 3.337429 14.9799 1.86554 12.7598 1.86554 C 10.803 1.86554 9.11827 3.0208 8.36363 4.67239 C 8.12671 5.20295 7.97753 5.7763 7.95121 6.383881 C 7.02107 6.39244 6.15236 6.64916 5.41526 7.11127 C 4.68695 7.56481 4.08148 8.19806 3.68661 8.95112 C 3.30929 6.48657 4.33595 4.441339 6.02073 3.003691 C 6.8719 2.26774 7.89856 1.694401 8.99542 1.309311 C 10.2678 0.847206 11.6454 0.641829 12.9617 0.710287 L 13.0582 0.710287 C 14.3744 0.641829 15.7521 0.847206 17.024401 1.309311 C 18.1213 1.694401 19.148001 2.26774 20.0079 3.003691 C 21.666401 4.424221 22.693001 6.44378 22.341999 8.8741 Z"/>
    <path id="path7" fill="#0d0b0a" stroke="none" d="M 14.7869 16.4217 C 14.5851 16.1821 13.9621 16.361799 13.4005 16.8239 C 13.2338 16.9608 13.1022 17.097799 12.9969 17.2432 C 12.8828 17.1063 12.7512 16.9608 12.5932 16.8239 C 12.0316 16.361799 11.4086 16.1821 11.2068 16.4217 C 11.005 16.661301 11.2945 17.226101 11.8561 17.6882 C 12.2598 18.013399 12.681 18.1931 12.9705 18.1845 C 12.9793 18.1845 12.9881 18.1845 13.0056 18.1845 C 13.0144 18.1845 13.0232 18.1845 13.0407 18.1845 C 13.3303 18.1931 13.7515 18.013399 14.1552 17.6882 C 14.6992 17.226101 14.9975 16.661301 14.7869 16.4217 Z"/>
    <path id="path8" fill="#80a6cb" stroke="none" d="M 18.955 10.8764 C 17.700199 11.2101 16.8403 10.7138 16.550699 10.226 C 16.2787 9.78105 16.3577 9.25905 16.7789 8.82262 C 17.042101 8.54878 17.437 8.30061 17.963499 8.12946 C 18.0161 8.11235 18.077499 8.09523 18.130199 8.07812 C 19.270901 7.74438 20.280001 8.06956 20.499399 8.83973 C 20.622299 9.30183 20.2274 10.5427 18.955 10.8764 Z"/>
    <path id="path9" fill="#393430" stroke="none" d="M 18.1821 8.60873 C 18.1821 9.44736 17.8664 10.1234 17.4804 10.1234 C 17.1208 10.1234 16.8225 9.55005 16.7787 8.79699 C 17.0418 8.52315 17.4366 8.27498 17.962799 8.10384 C 18.015499 8.08672 18.0769 8.06961 18.129499 8.05249 C 18.1558 8.2322 18.1821 8.42046 18.1821 8.60873 Z"/>
    <path id="path10" fill="#ffffff" stroke="none" d="M 18.612 9.51577 C 19.0965 9.51577 19.489201 9.35868 19.489201 9.16491 C 19.489201 8.97114 19.0965 8.81406 18.612 8.81406 C 18.1276 8.81406 17.7349 8.97114 17.7349 9.16491 C 17.7349 9.35868 18.1276 9.51577 18.612 9.51577 Z"/>
    <path id="path11" fill="#80a6cb" stroke="none" d="M 7.02124 10.8764 C 8.27605 11.2101 9.13599 10.7138 9.42557 10.226 C 9.69759 9.78105 9.61861 9.25905 9.19742 8.82262 C 8.93417 8.54878 8.5393 8.30061 8.01281 8.12946 C 7.96016 8.11235 7.89873 8.09523 7.84608 8.07812 C 6.70535 7.74438 5.69624 8.06956 5.47686 8.83973 C 5.35401 9.30183 5.74888 10.5427 7.02124 10.8764 Z"/>
    <path id="path12" fill="#393430" stroke="none" d="M 7.7926 8.5917 C 7.7926 9.43033 8.10838 10.1064 8.49432 10.1064 C 8.85395 10.1064 9.15219 9.53302 9.19604 8.77996 C 8.9329 8.50612 8.53818 8.25796 8.01189 8.08681 C 7.95926 8.06969 7.89786 8.05258 7.84523 8.03546 C 7.81892 8.20661 7.7926 8.39487 7.7926 8.5917 Z"/>
    <path id="path13" fill="#ffffff" stroke="none" d="M 7.56453 9.51577 C 8.04897 9.51577 8.44168 9.35868 8.44168 9.16491 C 8.44168 8.97114 8.04897 8.81406 7.56453 8.81406 C 7.08009 8.81406 6.68738 8.97114 6.68738 9.16491 C 6.68738 9.35868 7.08009 9.51577 7.56453 9.51577 Z"/>
</svg>
